<svg width="29" height="29" viewBox="0 0 29 29" fill="none" xmlns="http://www.w3.org/2000/svg">
<rect width="29" height="29" rx="5" fill="#171718"/>
<path d="M20.1751 9.35023C20.7638 9.35023 21.2536 9.74936 21.4025 10.2923H24.0248V8.63293L19.4357 5H6V8.18398H12.9335V10.3104C13.4091 10.4853 13.7505 10.9383 13.7505 11.4744C13.7505 12.1617 13.1934 12.7193 12.5055 12.7193C11.8182 12.7193 11.2612 12.1617 11.2612 11.4744C11.2612 10.9043 11.6478 10.4287 12.1709 10.2815V8.90185H6V10.2855H9.22531L9.22927 11.3057C9.76428 11.4308 10.164 11.9086 10.164 12.4816C10.164 13.1507 9.62161 13.6937 8.95243 13.6937C8.28325 13.6937 7.74032 13.1513 7.74032 12.4816C7.74032 11.959 8.07434 11.5163 8.53971 11.3481V10.8981H6V16.7712H14.1757L15.1874 15.5795C15.0792 15.3955 15.013 15.1843 15.013 14.9545C15.013 14.2672 15.5695 13.7101 16.2574 13.7101C16.9447 13.7101 17.5017 14.2666 17.5017 14.9545C17.5017 15.6423 16.9447 16.1989 16.2574 16.1989C16.0694 16.1989 15.8928 16.1541 15.7342 16.0805L14.4865 17.5497L14.4417 17.5106H6V23.0265H24.0254V19.8312H21.5134C21.3662 20.3538 20.8907 20.7399 20.3211 20.7399C19.6338 20.7399 19.0773 20.1822 19.0773 19.4955C19.0773 18.8076 19.6338 18.25 20.3211 18.25C20.9161 18.25 21.4115 18.6678 21.5344 19.226H24.0254V11.009H21.3883C21.2253 11.5276 20.7474 11.9058 20.1751 11.9058C19.4696 11.9058 18.8973 11.3334 18.8973 10.6274C18.8973 9.92147 19.4696 9.35023 20.1751 9.35023Z" fill="#FBFBFB"/>
</svg>
